<?xml version="1.0" encoding="UTF-8"?>
<svg xmlns="http://www.w3.org/2000/svg" xmlns:xlink="http://www.w3.org/1999/xlink" width="539pt" height="269pt" viewBox="0 0 539 269" version="1.1">
<g id="surface1">
<path style=" stroke:none;fill-rule:evenodd;fill:rgb(0%,38.398743%,66.699219%);fill-opacity:1;" d="M 538.757813 150.398438 C 485.460938 63.839844 201.449219 60.386719 2.265625 107.519531 C 315.4375 59.972656 470.578125 90.699219 538.757813 150.398438 "/>
<path style=" stroke:none;fill-rule:evenodd;fill:rgb(72.198486%,60.798645%,36.099243%);fill-opacity:1;" d="M 393.914063 20.71875 C 317.789063 3.398438 191.335938 31.066406 23.179688 96.015625 C 212.046875 14.167969 354.28125 -27.144531 393.914063 20.71875 "/>
<path style=" stroke:none;fill-rule:evenodd;fill:rgb(72.198486%,60.798645%,36.099243%);fill-opacity:1;" d="M 436.269531 89.21875 C 457.554688 -9.183594 305.171875 0.773438 0.171875 105.949219 C 213.027344 59.238281 369.828125 46.6875 436.269531 89.21875 "/>
<path style=" stroke:none;fill-rule:nonzero;fill:rgb(0%,38.398743%,66.699219%);fill-opacity:1;" d="M 464.492188 219.738281 L 474.753906 219.738281 L 474.753906 172.210938 C 475.710938 173.550781 476.734375 174.855469 477.835938 176.148438 C 478.941406 177.421875 480.121094 178.664063 481.367188 179.859375 L 525.761719 222.414063 L 525.761719 151.363281 L 515.503906 151.363281 L 515.503906 198.796875 C 514.367188 197.359375 513.167969 195.941406 511.9375 194.554688 C 510.722656 193.167969 509.414063 191.816406 508.023438 190.476563 L 464.492188 148.6875 Z M 428.835938 219.738281 L 441.03125 219.738281 L 441.03125 151.363281 L 428.835938 151.363281 Z M 305.246094 180.53125 L 305.246094 160.925781 L 307.4375 160.925781 C 310.15625 160.910156 312.523438 161.054688 314.527344 161.339844 C 316.53125 161.628906 318.1875 162.136719 319.507813 162.886719 C 320.835938 163.621094 321.808594 164.671875 322.453125 166.011719 C 323.113281 167.347656 323.429688 169.070313 323.429688 171.160156 C 323.429688 173.199219 323.097656 174.839844 322.4375 176.097656 C 321.757813 177.34375 320.761719 178.28125 319.441406 178.921875 C 318.097656 179.574219 316.425781 180.003906 314.441406 180.226563 C 312.4375 180.449219 310.105469 180.546875 307.4375 180.53125 Z M 304.511719 189.136719 L 305.871094 189.136719 L 330.746094 219.738281 L 344.433594 219.738281 L 318.726563 188.65625 C 324.386719 188.039063 328.652344 186.171875 331.527344 183.082031 C 334.417969 180.003906 335.863281 175.703125 335.863281 170.203125 C 335.847656 166.964844 335.203125 164.082031 333.949219 161.515625 C 332.675781 158.933594 330.917969 156.828125 328.652344 155.1875 C 327.121094 154.121094 325.433594 153.308594 323.585938 152.75 C 321.722656 152.191406 319.664063 151.824219 317.4375 151.632813 C 315.191406 151.441406 312.734375 151.347656 310.054688 151.363281 L 293.121094 151.363281 L 293.121094 219.738281 L 304.511719 219.738281 Z M 263.785156 160.832031 L 281.664063 160.832031 L 281.664063 151.363281 L 234.835938 151.363281 L 234.835938 160.832031 L 252.8125 160.832031 L 252.8125 219.738281 L 263.785156 219.738281 Z M 164.59375 151.363281 L 164.59375 193.917969 C 164.578125 203.148438 166.972656 210.0625 171.746094 214.652344 C 176.523438 219.261719 183.757813 221.554688 193.4375 221.554688 C 203.136719 221.554688 210.371094 219.261719 215.179688 214.652344 C 219.984375 210.0625 222.382813 203.148438 222.382813 193.917969 L 222.382813 151.363281 L 210.964844 151.363281 L 210.964844 192.867188 C 210.964844 199.035156 209.484375 203.671875 206.566406 206.765625 C 203.628906 209.871094 199.246094 211.417969 193.4375 211.417969 C 187.628906 211.417969 183.25 209.871094 180.3125 206.765625 C 177.390625 203.671875 175.914063 199.035156 175.914063 192.867188 L 175.914063 151.363281 Z M 113.546875 192.867188 L 120.957031 177.28125 C 121.363281 176.371094 121.785156 175.285156 122.242188 174.011719 C 122.683594 172.738281 123.140625 171.253906 123.597656 169.53125 C 124.105469 171.253906 124.59375 172.738281 125.050781 174.011719 C 125.507813 175.285156 125.933594 176.371094 126.339844 177.28125 L 133.746094 192.867188 Z M 146.132813 219.738281 L 158.617188 219.738281 L 123.496094 148.6875 L 88.375 219.738281 L 100.757813 219.738281 L 109.183594 202.144531 L 137.910156 202.144531 Z M 43.027344 184.738281 L 43.027344 194.109375 L 71.828125 194.109375 L 71.828125 195.066406 C 71.8125 198.460938 70.976563 201.394531 69.316406 203.863281 C 67.648438 206.335938 65.265625 208.230469 62.132813 209.570313 C 59.015625 210.90625 55.261719 211.59375 50.871094 211.609375 C 47.070313 211.59375 43.574219 210.972656 40.425781 209.746094 C 37.277344 208.5 34.550781 206.75 32.25 204.453125 C 29.945313 202.160156 28.183594 199.417969 26.925781 196.246094 C 25.667969 193.058594 25.035156 189.503906 25.019531 185.597656 C 25.035156 181.742188 25.667969 178.234375 26.925781 175.09375 C 28.199219 171.957031 29.980469 169.261719 32.28125 167.015625 C 34.582031 164.75 37.292969 163.015625 40.425781 161.804688 C 43.558594 160.589844 47.019531 159.984375 50.773438 159.96875 C 54.445313 159.96875 57.757813 160.621094 60.726563 161.929688 C 63.699219 163.238281 66.359375 165.230469 68.695313 167.90625 L 77.019531 161.785156 C 73.65625 157.769531 69.789063 154.773438 65.414063 152.796875 C 61.039063 150.820313 56.09375 149.835938 50.578125 149.835938 C 47.085938 149.835938 43.722656 150.214844 40.507813 150.996094 C 37.308594 151.761719 34.304688 152.894531 31.496094 154.375 C 28.691406 155.871094 26.144531 157.707031 23.84375 159.875 C 20.316406 163.238281 17.65625 167.078125 15.859375 171.414063 C 14.066406 175.765625 13.167969 180.515625 13.167969 185.695313 C 13.167969 189.089844 13.578125 192.339844 14.359375 195.449219 C 15.144531 198.574219 16.300781 201.488281 17.820313 204.214844 C 19.355469 206.941406 21.230469 209.394531 23.449219 211.609375 C 26.8125 214.957031 30.761719 217.441406 35.25 219.085938 C 39.757813 220.742188 44.863281 221.554688 50.578125 221.554688 C 57.382813 221.539063 63.191406 220.34375 68.007813 217.984375 C 72.824219 215.625 76.496094 212.183594 79.042969 207.65625 C 81.589844 203.128906 82.878906 197.632813 82.894531 191.144531 C 82.894531 190.378906 82.878906 189.472656 82.828125 188.402344 C 82.796875 187.351563 82.746094 186.125 82.699219 184.738281 Z M 372.347656 192.867188 L 379.757813 177.28125 C 380.164063 176.371094 380.585938 175.285156 381.046875 174.011719 C 381.484375 172.738281 381.941406 171.253906 382.394531 169.53125 C 382.90625 171.253906 383.394531 172.738281 383.851563 174.011719 C 384.308594 175.285156 384.730469 176.371094 385.136719 177.28125 L 392.546875 192.867188 Z M 404.933594 219.738281 L 417.414063 219.738281 L 382.296875 148.6875 L 347.175781 219.738281 L 359.558594 219.738281 L 367.984375 202.144531 L 396.710938 202.144531 Z M 64.429688 267.71875 L 68.144531 267.71875 L 68.144531 256.871094 L 77.203125 256.871094 L 77.203125 253.578125 L 68.144531 253.578125 L 68.144531 247.828125 L 77.203125 247.828125 L 77.203125 244.632813 L 64.429688 244.632813 Z M 104.707031 256.222656 C 104.703125 254.582031 104.398438 253.039063 103.789063 251.582031 C 103.1875 250.121094 102.296875 248.804688 101.121094 247.636719 C 99.945313 246.484375 98.625 245.613281 97.160156 245.015625 C 95.695313 244.417969 94.136719 244.121094 92.476563 244.117188 C 91.378906 244.117188 90.308594 244.25 89.28125 244.519531 C 88.25 244.789063 87.277344 245.179688 86.355469 245.703125 C 85.433594 246.226563 84.585938 246.871094 83.800781 247.636719 C 82.628906 248.804688 81.746094 250.117188 81.148438 251.5625 C 80.550781 253.015625 80.246094 254.574219 80.246094 256.222656 C 80.246094 257.875 80.550781 259.433594 81.148438 260.878906 C 81.746094 262.328125 82.628906 263.628906 83.800781 264.78125 C 84.574219 265.542969 85.421875 266.191406 86.351563 266.71875 C 87.273438 267.246094 88.253906 267.648438 89.285156 267.925781 C 90.320313 268.191406 91.382813 268.332031 92.476563 268.332031 C 93.570313 268.332031 94.625 268.191406 95.652344 267.925781 C 96.675781 267.648438 97.648438 267.246094 98.570313 266.71875 C 99.488281 266.191406 100.339844 265.542969 101.121094 264.78125 C 102.296875 263.628906 103.1875 262.328125 103.789063 260.878906 C 104.398438 259.433594 104.703125 257.875 104.707031 256.222656 Z M 100.832031 256.222656 C 100.832031 257.394531 100.617188 258.496094 100.203125 259.527344 C 99.78125 260.566406 99.171875 261.5 98.367188 262.328125 C 97.5625 263.148438 96.660156 263.78125 95.660156 264.207031 C 94.664063 264.628906 93.601563 264.84375 92.476563 264.84375 C 91.347656 264.84375 90.285156 264.628906 89.273438 264.207031 C 88.265625 263.78125 87.359375 263.148438 86.550781 262.328125 C 85.753906 261.5 85.144531 260.566406 84.734375 259.527344 C 84.328125 258.496094 84.121094 257.394531 84.121094 256.222656 C 84.121094 255.054688 84.328125 253.949219 84.734375 252.902344 C 85.144531 251.855469 85.753906 250.917969 86.550781 250.089844 C 87.363281 249.261719 88.269531 248.636719 89.285156 248.210938 C 90.296875 247.785156 91.359375 247.570313 92.476563 247.570313 C 93.21875 247.570313 93.9375 247.667969 94.636719 247.855469 C 95.335938 248.050781 96.003906 248.332031 96.632813 248.703125 C 97.261719 249.078125 97.84375 249.539063 98.367188 250.089844 C 99.171875 250.917969 99.78125 251.855469 100.203125 252.902344 C 100.617188 253.949219 100.832031 255.054688 100.832031 256.222656 Z M 112.453125 257.386719 L 112.871094 257.386719 L 120.492188 267.71875 L 124.683594 267.71875 L 116.808594 257.226563 C 118.542969 257.015625 119.851563 256.386719 120.730469 255.34375 C 121.617188 254.300781 122.058594 252.851563 122.058594 250.992188 C 122.054688 249.902344 121.855469 248.925781 121.472656 248.058594 C 121.082031 247.1875 120.546875 246.476563 119.851563 245.925781 C 119.382813 245.5625 118.863281 245.289063 118.296875 245.101563 C 117.726563 244.910156 117.097656 244.789063 116.414063 244.722656 C 115.726563 244.660156 114.972656 244.628906 114.152344 244.632813 L 108.964844 244.632813 L 108.964844 267.71875 L 112.453125 267.71875 Z M 112.679688 254.480469 L 112.679688 247.859375 L 113.351563 247.859375 C 114.183594 247.855469 114.910156 247.90625 115.523438 248 C 116.136719 248.097656 116.644531 248.269531 117.050781 248.523438 C 117.453125 248.769531 117.753906 249.125 117.949219 249.578125 C 118.152344 250.03125 118.25 250.609375 118.25 251.316406 C 118.25 252.003906 118.148438 252.558594 117.945313 252.984375 C 117.738281 253.40625 117.433594 253.722656 117.027344 253.9375 C 116.617188 254.15625 116.105469 254.300781 115.496094 254.378906 C 114.882813 254.453125 114.167969 254.488281 113.351563 254.480469 Z M 140.054688 257.355469 L 142.199219 257.355469 C 142.976563 257.359375 143.703125 257.339844 144.382813 257.296875 C 145.058594 257.253906 145.695313 257.144531 146.28125 256.980469 C 146.867188 256.816406 147.417969 256.550781 147.929688 256.191406 C 148.40625 255.84375 148.808594 255.40625 149.152344 254.878906 C 149.5 254.351563 149.765625 253.757813 149.953125 253.101563 C 150.140625 252.441406 150.234375 251.742188 150.234375 250.992188 C 150.234375 250.246094 150.140625 249.546875 149.953125 248.894531 C 149.765625 248.238281 149.5 247.652344 149.152344 247.128906 C 148.808594 246.605469 148.40625 246.175781 147.929688 245.828125 C 147.417969 245.457031 146.867188 245.1875 146.28125 245.015625 C 145.695313 244.84375 145.058594 244.734375 144.382813 244.691406 C 143.703125 244.644531 142.976563 244.628906 142.199219 244.632813 L 136.5625 244.632813 L 136.5625 267.71875 L 140.054688 267.71875 Z M 140.277344 254.285156 L 140.277344 247.859375 L 141.238281 247.859375 C 142.101563 247.855469 142.855469 247.898438 143.5 247.996094 C 144.144531 248.085938 144.683594 248.253906 145.113281 248.496094 C 145.539063 248.738281 145.859375 249.082031 146.070313 249.523438 C 146.285156 249.964844 146.394531 250.53125 146.394531 251.21875 C 146.394531 251.886719 146.285156 252.417969 146.066406 252.828125 C 145.855469 253.238281 145.535156 253.550781 145.101563 253.757813 C 144.671875 253.96875 144.136719 254.109375 143.488281 254.183594 C 142.84375 254.261719 142.097656 254.292969 141.238281 254.285156 Z M 153.597656 267.71875 L 166.371094 267.71875 L 166.371094 264.359375 L 157.3125 264.359375 L 157.3125 256.902344 L 166.371094 256.902344 L 166.371094 253.609375 L 157.3125 253.609375 L 157.3125 247.828125 L 166.371094 247.828125 L 166.371094 244.632813 L 153.597656 244.632813 Z M 194.097656 256.222656 C 194.09375 254.582031 193.789063 253.039063 193.179688 251.582031 C 192.574219 250.121094 191.6875 248.804688 190.511719 247.636719 C 189.339844 246.484375 188.015625 245.613281 186.554688 245.015625 C 185.085938 244.417969 183.527344 244.121094 181.867188 244.117188 C 180.769531 244.117188 179.699219 244.25 178.671875 244.519531 C 177.640625 244.789063 176.671875 245.179688 175.746094 245.703125 C 174.824219 246.226563 173.976563 246.871094 173.191406 247.636719 C 172.023438 248.804688 171.136719 250.117188 170.539063 251.5625 C 169.941406 253.015625 169.636719 254.574219 169.636719 256.222656 C 169.636719 257.875 169.941406 259.433594 170.539063 260.878906 C 171.136719 262.328125 172.023438 263.628906 173.191406 264.78125 C 173.964844 265.542969 174.8125 266.191406 175.742188 266.71875 C 176.664063 267.246094 177.644531 267.648438 178.675781 267.925781 C 179.710938 268.191406 180.773438 268.332031 181.867188 268.332031 C 182.960938 268.332031 184.019531 268.191406 185.042969 267.925781 C 186.066406 267.648438 187.039063 267.246094 187.960938 266.71875 C 188.878906 266.191406 189.734375 265.542969 190.511719 264.78125 C 191.6875 263.628906 192.574219 262.328125 193.179688 260.878906 C 193.789063 259.433594 194.09375 257.875 194.097656 256.222656 Z M 190.222656 256.222656 C 190.222656 257.394531 190.011719 258.496094 189.59375 259.527344 C 189.171875 260.566406 188.5625 261.5 187.757813 262.328125 C 186.953125 263.148438 186.050781 263.78125 185.054688 264.207031 C 184.054688 264.628906 182.992188 264.84375 181.867188 264.84375 C 180.742188 264.84375 179.675781 264.628906 178.664063 264.207031 C 177.65625 263.78125 176.75 263.148438 175.941406 262.328125 C 175.144531 261.5 174.535156 260.566406 174.125 259.527344 C 173.71875 258.496094 173.511719 257.394531 173.511719 256.222656 C 173.511719 255.054688 173.71875 253.949219 174.125 252.902344 C 174.535156 251.855469 175.144531 250.917969 175.941406 250.089844 C 176.753906 249.261719 177.664063 248.636719 178.675781 248.210938 C 179.6875 247.785156 180.753906 247.570313 181.867188 247.570313 C 182.609375 247.570313 183.328125 247.667969 184.027344 247.855469 C 184.726563 248.050781 185.394531 248.332031 186.023438 248.703125 C 186.652344 249.078125 187.234375 249.539063 187.757813 250.089844 C 188.5625 250.917969 189.171875 251.855469 189.59375 252.902344 C 190.011719 253.949219 190.222656 255.054688 190.222656 256.222656 Z M 201.84375 257.355469 L 203.992188 257.355469 C 204.769531 257.359375 205.496094 257.339844 206.171875 257.296875 C 206.851563 257.253906 207.484375 257.144531 208.074219 256.980469 C 208.660156 256.816406 209.210938 256.550781 209.722656 256.191406 C 210.195313 255.84375 210.601563 255.40625 210.945313 254.878906 C 211.289063 254.351563 211.558594 253.757813 211.746094 253.101563 C 211.929688 252.441406 212.027344 251.742188 212.027344 250.992188 C 212.027344 250.246094 211.929688 249.546875 211.746094 248.894531 C 211.558594 248.238281 211.289063 247.652344 210.945313 247.128906 C 210.601563 246.605469 210.195313 246.175781 209.722656 245.828125 C 209.210938 245.457031 208.660156 245.1875 208.074219 245.015625 C 207.484375 244.84375 206.851563 244.734375 206.171875 244.691406 C 205.496094 244.644531 204.769531 244.628906 203.992188 244.632813 L 198.355469 244.632813 L 198.355469 267.71875 L 201.84375 267.71875 Z M 202.070313 254.285156 L 202.070313 247.859375 L 203.03125 247.859375 C 203.894531 247.855469 204.648438 247.898438 205.292969 247.996094 C 205.9375 248.085938 206.476563 248.253906 206.902344 248.496094 C 207.332031 248.738281 207.652344 249.082031 207.863281 249.523438 C 208.078125 249.964844 208.1875 250.53125 208.1875 251.21875 C 208.1875 251.886719 208.078125 252.417969 207.859375 252.828125 C 207.644531 253.238281 207.324219 253.550781 206.894531 253.757813 C 206.464844 253.96875 205.929688 254.109375 205.28125 254.183594 C 204.636719 254.261719 203.890625 254.292969 203.03125 254.285156 Z M 215.390625 267.71875 L 227.425781 267.71875 L 227.425781 264.359375 L 219.101563 264.359375 L 219.101563 244.632813 L 215.390625 244.632813 Z M 230.4375 267.71875 L 243.210938 267.71875 L 243.210938 264.359375 L 234.152344 264.359375 L 234.152344 256.902344 L 243.210938 256.902344 L 243.210938 253.609375 L 234.152344 253.609375 L 234.152344 247.828125 L 243.210938 247.828125 L 243.210938 244.632813 L 230.4375 244.632813 Z M 280.605469 256.222656 C 280.601563 254.582031 280.296875 253.039063 279.6875 251.582031 C 279.085938 250.121094 278.195313 248.804688 277.019531 247.636719 C 275.847656 246.484375 274.523438 245.613281 273.0625 245.015625 C 271.59375 244.417969 270.035156 244.121094 268.378906 244.117188 C 267.277344 244.117188 266.210938 244.25 265.179688 244.519531 C 264.148438 244.789063 263.179688 245.179688 262.257813 245.703125 C 261.335938 246.226563 260.484375 246.871094 259.699219 247.636719 C 258.53125 248.804688 257.644531 250.117188 257.046875 251.5625 C 256.449219 253.015625 256.144531 254.574219 256.144531 256.222656 C 256.144531 257.875 256.449219 259.433594 257.046875 260.878906 C 257.644531 262.328125 258.53125 263.628906 259.699219 264.78125 C 260.472656 265.542969 261.320313 266.191406 262.25 266.71875 C 263.175781 267.246094 264.15625 267.648438 265.183594 267.925781 C 266.21875 268.191406 267.28125 268.332031 268.378906 268.332031 C 269.472656 268.332031 270.527344 268.191406 271.550781 267.925781 C 272.574219 267.648438 273.546875 267.246094 274.46875 266.71875 C 275.390625 266.191406 276.242188 265.542969 277.019531 264.78125 C 278.195313 263.628906 279.085938 262.328125 279.6875 260.878906 C 280.296875 259.433594 280.601563 257.875 280.605469 256.222656 Z M 276.734375 256.222656 C 276.734375 257.394531 276.519531 258.496094 276.101563 259.527344 C 275.683594 260.566406 275.074219 261.5 274.269531 262.328125 C 273.460938 263.148438 272.5625 263.78125 271.5625 264.207031 C 270.5625 264.628906 269.503906 264.84375 268.378906 264.84375 C 267.25 264.84375 266.183594 264.628906 265.175781 264.207031 C 264.167969 263.78125 263.257813 263.148438 262.453125 262.328125 C 261.652344 261.5 261.046875 260.566406 260.632813 259.527344 C 260.226563 258.496094 260.019531 257.394531 260.019531 256.222656 C 260.019531 255.054688 260.226563 253.949219 260.632813 252.902344 C 261.046875 251.855469 261.652344 250.917969 262.453125 250.089844 C 263.265625 249.261719 264.171875 248.636719 265.183594 248.210938 C 266.199219 247.785156 267.261719 247.570313 268.378906 247.570313 C 269.117188 247.570313 269.839844 247.667969 270.539063 247.855469 C 271.238281 248.050781 271.902344 248.332031 272.535156 248.703125 C 273.164063 249.078125 273.746094 249.539063 274.269531 250.089844 C 275.074219 250.917969 275.683594 251.855469 276.101563 252.902344 C 276.519531 253.949219 276.734375 255.054688 276.734375 256.222656 Z M 284.867188 267.71875 L 288.289063 267.71875 L 288.289063 251.671875 C 288.609375 252.125 288.953125 252.566406 289.320313 253 C 289.6875 253.429688 290.085938 253.851563 290.5 254.253906 L 305.324219 268.625 L 305.324219 244.632813 L 301.898438 244.632813 L 301.898438 260.648438 C 301.519531 260.164063 301.117188 259.683594 300.710938 259.214844 C 300.304688 258.746094 299.867188 258.289063 299.402344 257.839844 L 284.867188 243.726563 Z M 327.640625 247.828125 L 333.691406 247.828125 L 333.691406 244.632813 L 317.84375 244.632813 L 317.84375 247.828125 L 323.925781 247.828125 L 323.925781 267.71875 L 327.640625 267.71875 Z M 336.542969 267.71875 L 340.253906 267.71875 L 340.253906 256.515625 L 351.523438 256.515625 L 351.523438 267.71875 L 355.238281 267.71875 L 355.238281 244.632813 L 351.523438 244.632813 L 351.523438 253.15625 L 340.253906 253.15625 L 340.253906 244.632813 L 336.542969 244.632813 Z M 360.488281 267.71875 L 373.265625 267.71875 L 373.265625 264.359375 L 364.203125 264.359375 L 364.203125 256.902344 L 373.265625 256.902344 L 373.265625 253.609375 L 364.203125 253.609375 L 364.203125 247.828125 L 373.265625 247.828125 L 373.265625 244.632813 L 360.488281 244.632813 Z M 405.855469 256.320313 L 408.386719 267.71875 L 411.84375 267.71875 L 406.304688 243.726563 L 399.710938 258.226563 C 399.527344 258.628906 399.320313 259.09375 399.089844 259.609375 C 398.855469 260.132813 398.628906 260.710938 398.398438 261.359375 C 398.078125 260.519531 397.816406 259.839844 397.605469 259.320313 C 397.398438 258.800781 397.246094 258.4375 397.148438 258.226563 L 390.394531 243.726563 L 384.980469 267.71875 L 388.40625 267.71875 L 390.871094 256.351563 C 390.984375 255.835938 391.082031 255.308594 391.15625 254.777344 C 391.226563 254.242188 391.273438 253.707031 391.289063 253.15625 C 391.433594 253.671875 391.597656 254.171875 391.789063 254.664063 C 391.976563 255.148438 392.1875 255.628906 392.410156 256.09375 L 398.398438 268.65625 L 404.386719 256.351563 C 404.640625 255.820313 404.859375 255.292969 405.035156 254.765625 C 405.210938 254.238281 405.34375 253.707031 405.441406 253.15625 C 405.550781 254.011719 405.636719 254.703125 405.699219 255.222656 C 405.761719 255.746094 405.8125 256.109375 405.855469 256.320313 Z M 438.289063 256.222656 C 438.285156 254.582031 437.980469 253.039063 437.371094 251.582031 C 436.769531 250.121094 435.878906 248.804688 434.703125 247.636719 C 433.53125 246.484375 432.207031 245.613281 430.746094 245.015625 C 429.277344 244.417969 427.71875 244.121094 426.058594 244.117188 C 424.960938 244.117188 423.894531 244.25 422.863281 244.519531 C 421.835938 244.789063 420.863281 245.179688 419.9375 245.703125 C 419.015625 246.226563 418.167969 246.871094 417.382813 247.636719 C 416.214844 248.804688 415.328125 250.117188 414.730469 251.5625 C 414.132813 253.015625 413.828125 254.574219 413.828125 256.222656 C 413.828125 257.875 414.132813 259.433594 414.730469 260.878906 C 415.328125 262.328125 416.214844 263.628906 417.382813 264.78125 C 418.15625 265.542969 419.003906 266.191406 419.933594 266.71875 C 420.855469 267.246094 421.839844 267.648438 422.867188 267.925781 C 423.902344 268.191406 424.964844 268.332031 426.058594 268.332031 C 427.152344 268.332031 428.210938 268.191406 429.234375 267.925781 C 430.257813 267.648438 431.230469 267.246094 432.152344 266.71875 C 433.070313 266.191406 433.925781 265.542969 434.703125 264.78125 C 435.878906 263.628906 436.769531 262.328125 437.371094 260.878906 C 437.980469 259.433594 438.285156 257.875 438.289063 256.222656 Z M 434.414063 256.222656 C 434.414063 257.394531 434.203125 258.496094 433.785156 259.527344 C 433.363281 260.566406 432.757813 261.5 431.949219 262.328125 C 431.144531 263.148438 430.242188 263.78125 429.246094 264.207031 C 428.246094 264.628906 427.1875 264.84375 426.058594 264.84375 C 424.933594 264.84375 423.867188 264.628906 422.859375 264.207031 C 421.851563 263.78125 420.941406 263.148438 420.136719 262.328125 C 419.335938 261.5 418.726563 260.566406 418.316406 259.527344 C 417.910156 258.496094 417.703125 257.394531 417.703125 256.222656 C 417.703125 255.054688 417.910156 253.949219 418.316406 252.902344 C 418.726563 251.855469 419.335938 250.917969 420.136719 250.089844 C 420.949219 249.261719 421.855469 248.636719 422.867188 248.210938 C 423.882813 247.785156 424.945313 247.570313 426.058594 247.570313 C 426.800781 247.570313 427.519531 247.667969 428.222656 247.855469 C 428.921875 248.050781 429.585938 248.332031 430.214844 248.703125 C 430.847656 249.078125 431.429688 249.539063 431.949219 250.089844 C 432.757813 250.917969 433.363281 251.855469 433.785156 252.902344 C 434.203125 253.949219 434.414063 255.054688 434.414063 256.222656 Z M 449.207031 268.625 L 459.421875 244.632813 L 455.578125 244.632813 L 450.457031 256.933594 C 450.183594 257.582031 449.945313 258.210938 449.734375 258.828125 C 449.527344 259.441406 449.351563 260.050781 449.207031 260.648438 C 449.078125 260.035156 448.914063 259.425781 448.707031 258.8125 C 448.503906 258.203125 448.265625 257.574219 447.992188 256.933594 L 442.867188 244.632813 L 438.996094 244.632813 Z M 461.726563 267.71875 L 474.5 267.71875 L 474.5 264.359375 L 465.441406 264.359375 L 465.441406 256.902344 L 474.5 256.902344 L 474.5 253.609375 L 465.441406 253.609375 L 465.441406 247.828125 L 474.5 247.828125 L 474.5 244.632813 L 461.726563 244.632813 L 461.726563 267.71875 "/>
</g>
</svg>
